<?xml version="1.0" encoding="utf-8"?>
<!-- Generator: Adobe Illustrator 25.2.0, SVG Export Plug-In . SVG Version: 6.00 Build 0)  -->
<svg version="1.1" id="Layer_1" xmlns="http://www.w3.org/2000/svg" xmlns:xlink="http://www.w3.org/1999/xlink" x="0px" y="0px"
	 viewBox="0 0 667.8 154.8" style="enable-background:new 0 0 667.8 154.8;" xml:space="preserve">
<style type="text/css">
	.st0{fill-rule:evenodd;clip-rule:evenodd;fill:#FF7E1D;}
	.st1{fill-rule:evenodd;clip-rule:evenodd;fill:#F86DA1;}
</style>
<path class="st0" d="M131.8,145.5c0,0,1.3-18.3-2.2-23.3c-3.5-5-8.3-7.3-7-20.4c0,0,1.6-6.7-2.8-10.1c-4.4-3.5-4.8-4.1-4.8-4.1
	s1.6-1.3,4.8-1.6c3.2-0.3-8.2-0.1-14.6,1.5c0,0-6.8-3.9-8.1-11.4c3-1.2,5-2,6.4-3.1h0c2.5-1.5,3.8-2.3,3.8-2.3l-1.9,0.4
	c0.7-1,1.2-2.3,1.8-4.1c2.1-6.9,15.8-10,16-6.4c0.1,2.3-0.3,5.1,1.7,8.8c0,0-2.2-8.9,1.4-9.4c3.6-0.5,12.5,2.1,12,9.6
	c-0.5,7.5-1,10.1-2.6,12.1c0,0,2.5-2.2,3.9-4.3l4,4.2l-7.5,6.7l8.4-4.8c0,0,34.7,29.8,39.6,37.9c4.9,8.1,7.8,14.7,4.4,22.9l-0.8,2.2
	c0,0,8.1-1.8,11.3-7.5c0.4,0.8,0.8,4.9-3.3,8.3c0,0,2-0.3,2.2-0.6c0.1-0.1-2.1,5.5-11.2,5.5h-41.3c0.3-1.8,1.3-6.5,9-5.7
	c0,0-9.6-11.5,5-17.5c0,0-6,0.4-8.8,5.8c0,0-0.9-1.1-2.2-1.8c-2.5,6.8-3.1,13.3-5.2,19.3h-12.1c0.4-2.4,2.1-5,5.4-6
	c0.2-3.6-0.4-22.7-4.8-27.1c3.1,4.6,3.7,19.7,3.6,25.6c0,0.2,0,0.5,0,0.7c-2.7,0.9-5.1,4-5.5,6.9h-5.2
	C124.8,152.2,125.6,146.3,131.8,145.5L131.8,145.5z"/>
<path class="st0" d="M85.5,88.5c-1.9-0.1-2.8,0.1-3.4,0C80,88.7,79,88.7,79,88.7l1.8-0.8c-0.4-0.2-0.9-0.5-1.5-1
	c-1.3-0.8-3.2-1.6-5.8-1.2c-2.1,0.3-3.2,0.6-3.8,0.7c-1.8,0.4-4.7-2.1-5-2.8c-0.5-2.1-1.9,1.8-1.3,4.3c1.3,5.2,1.5,8.8,0.6,12.1
	c1.3,0.9,3.5,2.5,7,3.9c-2.6-0.3-5.1-1.2-7.4-2.6l0,0c-0.7,2.1-1.8,3.8-3.3,5.3c-13,13.6-33.2,14.3-27.4,42.3h-5.8
	c-3.3,0-6.4-1.3-8.6-3.6c-2.2-2.2-3.6-5.2-3.6-8.6l0,0c0-3.3,1.3-6.4,3.6-8.6c2.2-2.2,5.2-3.6,8.6-3.6c0.9,0,1.6-0.7,1.6-1.6
	c0-0.9-0.7-1.6-1.6-1.6c-4.2,0-8,1.7-10.8,4.5c-2.8,2.8-4.5,6.6-4.5,10.8l0,0c0,4.2,1.7,8,4.5,10.8c2.8,2.8,6.6,4.5,10.8,4.5h6.5
	h3.2h29c2.9-0.1,4.7-0.2,4.7-0.2s0.2-3.5-2.6-3.7c-2.7-0.2-9.6-0.5-9.6-0.5c-2.3-0.1-3.5-0.1-3.5-0.1c2.7-0.5,4.9-1.2,6.6-2.1
	c2.4-1.8,5.5-4.4,7.4-6.9c0.1-2.6,0.6-5.3,1.6-8.3c-0.4,2.3-0.6,4.5-0.5,6.5c0,0,2.7,13.9,3.8,15.2h10.9c0-1.1-0.4-2.9-2.3-4.3
	c-0.4-0.3-1.6-0.5-2.2-0.8c-2.5-0.9-1.8-13.9,1.8-25.3c2.7-8.4,2.4-11.1,1-17.8c-0.6,0.9-0.6,1.1-1.1,2.2c0.4-2.7,1.9-5.3,2.8-6.8
	c0.4-1,1.1-2.1,1.5-2.9C87.7,93.5,86.1,89.2,85.5,88.5L85.5,88.5z"/>
<path class="st0" d="M117.2,149.3c0.6-1.5,1-3.4,1.3-5.5c3.4-3.4,5.4-5.3,5.5-6.9c-0.4-3.3,0.1-5.1,1.4-5.4c1.6-0.9,2.3-1.6,2.5-3.7
	c-1.8-3.6-4.1-5.8-7.2-6.5l-0.1,1.6c0,0-0.1-0.5-0.3-1.6c-1.4-5.2-4.2-9-8.4-11.4c-0.9,4.2,0.4,8.3,4,12.1c-0.5,0.6-0.8,0.9-0.8,0.9
	c-3.1-2.2-7.7-2.5-13.8-0.7c3.4,2.6,7.3,4,11.7,4.3c0,2.6-1.3,3.6-4,3c-9-2-15,0.9-18.1,8.9c-0.7,2.7-0.6,5.1,0.2,7.7l2.5,1.4
	c0.2,0-0.5-0.2-2.1-0.5c-6.5-1.9-4.8,5.4,0.9,5.4c9.1,0,19.2,0,21.2,0c-0.3-2.1-1.1-2.6-2.9-2.6c-5,0-7.5,0-7.5,0
	c4.6-0.6,7.6-1.3,9.3-2.3c-0.3-1.1-0.4-2.4-0.3-4.1c0.1,1.1,0.4,2.3,0.9,3.7c1.2,3,2,5.1,2,5.1c3.5,0,5.3,0,5.3,0
	C120.1,149.8,119,149.4,117.2,149.3L117.2,149.3z"/>
<path class="st1" d="M40.6,107.4c-5.1-5.2-9.7-10.9-13.6-16.7c-5.1-7.5-9.6-16.1-11.7-25c-2.6-10.8-1.1-21.6,5.1-30.9
	C30,20.6,47.9,13.7,64.7,15.1c9.4,0.8,18.2,4.1,25.9,9.6c8.4,6,14.6,14.3,19.1,23.5c10-10,23.1-17.2,37.7-15.9
	c11.9,1.1,22.7,7.9,28.6,18.4c3.8,6.8,5.3,14.6,4.1,22.3c-0.8,5-2.7,9.7-5.3,14c2.1-2.3,4-4.8,5.5-7.6c3.5-6.4,4.8-13.7,3.7-21
	c-2-13.6-11.8-25.3-24.2-30.8c-15.9-7-32.5-2.7-46,7.4l-1.6,1.2l-1.1-1.7C101.2,19.1,85.6,9,67.8,5.9C51.8,3.2,34.4,6.2,21.4,16.2
	C13.9,22,8.5,29.7,5.6,38.8C3.4,45.5,3,52.4,4.3,59.3c2.1,11.3,8.5,21.6,16,30.2C25.9,95.9,33,102.2,40.6,107.4L40.6,107.4z"/>
<g>
	<path d="M268.4,66.3c0,3.3-0.5,6.2-1.5,8.7c-1,2.5-2.3,4.8-4,6.7c-1.7,1.9-3.7,3.5-6,4.8c-2.3,1.3-4.8,2.4-7.4,3.2
		c-2.6,0.8-5.3,1.4-8.2,1.8c-2.8,0.4-5.6,0.6-8.3,0.6v23.7h-23.7c0-7.8,0-15.5,0.1-23.2c0-7.7,0.1-15.5,0.2-23.3
		c0.1-4.1,0.1-8.3,0.1-12.4c0-4.1,0.1-8.3,0.3-12.5c4.3-1.3,8.7-2.3,13-2.9c4.3-0.6,8.8-1,13.4-1c2.6,0,5.2,0.2,7.8,0.6
		c2.6,0.4,5.1,1.1,7.5,2c2.4,0.9,4.6,2.1,6.7,3.4c2.1,1.4,3.8,3,5.3,4.9c1.5,1.9,2.7,4.1,3.5,6.5C268,60.6,268.4,63.3,268.4,66.3z
		 M245.8,68c0-2.2-0.7-3.9-2-5.2c-1.3-1.2-3.1-1.9-5.2-1.9c-0.7,0-1.4,0.1-2.2,0.2c-0.8,0.1-1.5,0.3-2.2,0.4l-0.6,14.8
		c0.5,0.1,0.9,0.1,1.4,0.1c0.4,0,0.9,0,1.4,0c1.2,0,2.4-0.2,3.5-0.6c1.1-0.4,2.1-1,3-1.8c0.9-0.8,1.6-1.7,2.1-2.7
		C245.6,70.5,245.8,69.3,245.8,68z"/>
	<path d="M329.9,110.8l-25.2,3.3l-3.1-11.5h-11.6l-2.5,11.5l-25.9-2.5l20.2-67.7l28.3-1.4L329.9,110.8z M299.8,87.1L296,69.4
		l-3.8,17.7H299.8z"/>
	<path d="M378.6,43.5l-0.5,21.6l-15.2,0.6l-1.8,47.2l-21.5,1.1l-1.9-47.2l-15.2,0.8l0.6-24L378.6,43.5z"/>
	<path d="M454.5,110.2c-1.2-0.9-2.4-1.8-3.6-2.6c-1.2-0.8-2.4-1.7-3.6-2.6c-1.7,1.3-3.5,2.6-5.6,3.8c-2.1,1.2-4.3,2.3-6.7,3.2
		c-2.4,0.9-4.8,1.5-7.4,2c-2.5,0.4-5.1,0.5-7.7,0.3c-2.9-0.2-5.7-0.8-8.3-1.8c-2.6-1-4.8-2.2-6.6-3.7c-1.8-1.5-3.2-3.3-4.1-5.2
		s-1.2-4.1-0.9-6.3c0.3-1.9,0.9-3.7,1.9-5.4c1-1.7,2.1-3.4,3.5-5c1.4-1.6,2.9-3.1,4.7-4.6c1.7-1.4,3.5-2.8,5.3-4
		c-1.3-1.3-2.5-2.6-3.6-4c-1.1-1.4-2.1-2.9-2.9-4.4c-0.8-1.5-1.4-3.1-1.8-4.6c-0.4-1.6-0.4-3.2-0.2-4.8c0.3-2.2,1.2-4.2,2.7-6.2
		c1.5-1.9,3.3-3.6,5.5-5c2.2-1.4,4.8-2.4,7.6-3.2c2.8-0.7,5.7-1,8.7-0.7c2.8,0.2,5.4,0.9,7.8,2s4.4,2.5,6.1,4.2
		c1.7,1.7,3,3.5,3.8,5.5c0.8,2,1.1,4,0.8,6c-0.2,1.6-0.8,3.2-1.6,4.6s-1.8,2.8-3,4c-1.2,1.3-2.5,2.5-3.9,3.7s-2.9,2.3-4.3,3.5
		c1.4,1.1,2.8,2.1,4.1,3.1c1.3,1,2.7,2,4,3c0.6-0.9,1.2-1.8,1.8-2.7c0.6-0.9,1.1-1.9,1.6-2.9l15.2,3.7c-0.7,1.9-1.6,3.8-2.7,5.7
		c-1.1,1.9-2.3,3.8-3.6,5.6c1.5,1.1,2.9,2.1,4.4,3.1c1.4,1,2.9,2,4.4,3.1L454.5,110.2z M432.5,95.4c-1-1.2-2.1-2.5-3.2-3.8
		c-1.1-1.3-2.1-2.5-3.2-3.8c-0.4,0.5-0.9,1.1-1.5,1.7c-0.5,0.7-1.1,1.4-1.6,2.2s-0.9,1.5-1.3,2.3c-0.4,0.8-0.6,1.6-0.7,2.3
		c-0.1,1,0.2,1.9,0.8,2.7c0.6,0.8,1.4,1.3,2.4,1.4c0.7,0.1,1.4,0,2.2-0.3c0.8-0.3,1.5-0.8,2.2-1.3s1.4-1.1,2-1.8
		C431.5,96.5,432.1,95.9,432.5,95.4z M430.9,62c0.1-1.2-0.1-2.2-0.6-2.9c-0.5-0.7-1.3-1.2-2.4-1.3c-1.1-0.2-2.1,0.1-2.9,0.7
		c-0.8,0.6-1.3,1.6-1.4,2.8c-0.1,0.8,0,1.6,0.2,2.4c0.2,0.8,0.4,1.6,0.7,2.3s0.7,1.5,1.1,2.2c0.4,0.7,0.8,1.3,1.2,1.9
		c0.4-0.5,0.9-1.1,1.3-1.7c0.5-0.6,0.9-1.3,1.3-2s0.7-1.4,1-2.2C430.6,63.4,430.8,62.7,430.9,62z"/>
	<path d="M547,66.3c0,3.3-0.5,6.2-1.5,8.7s-2.3,4.8-4,6.7c-1.7,1.9-3.7,3.5-6,4.8c-2.3,1.3-4.8,2.4-7.4,3.2s-5.3,1.4-8.2,1.8
		c-2.8,0.4-5.6,0.6-8.3,0.6v23.7h-23.7c0-7.8,0-15.5,0.1-23.2c0-7.7,0.1-15.5,0.2-23.3c0.1-4.1,0.1-8.3,0.1-12.4
		c0-4.1,0.1-8.3,0.3-12.5c4.3-1.3,8.7-2.3,13-2.9c4.3-0.6,8.8-1,13.4-1c2.6,0,5.2,0.2,7.8,0.6c2.6,0.4,5.1,1.1,7.5,2
		c2.4,0.9,4.6,2.1,6.7,3.4c2.1,1.4,3.8,3,5.3,4.9c1.5,1.9,2.7,4.1,3.5,6.5C546.6,60.6,547,63.3,547,66.3z M524.4,68
		c0-2.2-0.7-3.9-2-5.2c-1.3-1.2-3.1-1.9-5.2-1.9c-0.7,0-1.4,0.1-2.2,0.2c-0.8,0.1-1.5,0.3-2.2,0.4l-0.6,14.8
		c0.5,0.1,0.9,0.1,1.4,0.1s0.9,0,1.4,0c1.2,0,2.4-0.2,3.5-0.6c1.1-0.4,2.1-1,3-1.8c0.9-0.8,1.6-1.7,2.1-2.7
		C524.2,70.5,524.4,69.3,524.4,68z"/>
	<path d="M606.5,74.1c0,2.9-0.2,5.9-0.6,8.8c-5.8,0.4-11.6,1-17.3,1.8c-5.7,0.8-11.5,1.7-17.2,2.5c0.9,2.4,2.3,4.4,4.1,5.8
		c1.9,1.5,4.1,2.2,6.7,2.2c1.4,0,2.8-0.3,4.4-0.8c1.6-0.5,3.2-1.1,4.8-1.9c1.6-0.8,3.1-1.6,4.6-2.5c1.5-0.9,2.7-1.7,3.8-2.4
		l-2.4,23.1c-1.3,1-2.8,1.9-4.3,2.6c-1.5,0.7-3.1,1.3-4.8,1.7c-1.7,0.4-3.3,0.8-5,1s-3.4,0.3-5,0.3c-3.4,0-6.4-0.5-9.2-1.4
		c-2.8-0.9-5.3-2.2-7.6-3.8c-2.3-1.6-4.2-3.6-5.9-5.8c-1.7-2.2-3.1-4.7-4.2-7.3c-1.1-2.6-2-5.4-2.5-8.4c-0.6-2.9-0.9-5.9-0.9-8.9
		c0-3.2,0.3-6.3,0.9-9.5c0.6-3.2,1.4-6.2,2.6-9.1c1.2-2.9,2.6-5.6,4.4-8.1c1.8-2.5,3.9-4.7,6.2-6.5c2.4-1.9,5.1-3.3,8.1-4.4
		c3-1.1,6.3-1.6,9.9-1.6c3,0,5.8,0.4,8.3,1.2c2.5,0.8,4.7,2,6.7,3.5c1.9,1.5,3.6,3.2,5.1,5.3c1.4,2,2.6,4.3,3.6,6.7
		c0.9,2.4,1.6,5,2.1,7.7C606.3,68.6,606.5,71.4,606.5,74.1z M586.2,71.5c0-0.9-0.1-1.9-0.3-2.9c-0.2-1-0.5-1.9-1-2.7
		c-0.5-0.8-1.1-1.5-1.8-2c-0.7-0.5-1.7-0.8-2.8-0.8c-1.4,0-2.6,0.4-3.6,1.1c-1,0.7-1.9,1.6-2.7,2.7c-0.7,1.1-1.4,2.3-1.8,3.6
		c-0.5,1.3-0.8,2.5-1.1,3.6l15.1-1.4V71.5z"/>
	<path d="M663.7,43.5l-0.5,21.6L648,65.7l-1.8,47.2l-21.5,1.1l-1.9-47.2l-15.2,0.8l0.6-24L663.7,43.5z"/>
</g>
</svg>
