<?xml version="1.0" encoding="utf-8"?>
<!-- Generator: Adobe Illustrator 25.2.0, SVG Export Plug-In . SVG Version: 6.00 Build 0)  -->
<svg version="1.1" id="Layer_1" xmlns="http://www.w3.org/2000/svg" xmlns:xlink="http://www.w3.org/1999/xlink" x="0px" y="0px"
	 viewBox="0 0 32 32" style="enable-background:new 0 0 32 32;" xml:space="preserve">
<style type="text/css">
	.st0{fill-rule:evenodd;clip-rule:evenodd;fill:#FF7E1D;}
	.st1{fill-rule:evenodd;clip-rule:evenodd;fill:#F86DA1;}
</style>
<g>
	<path class="st0" d="M20.7,26.5c0,0,0.2-2.9-0.3-3.6c-0.5-0.8-1.3-1.1-1.1-3.2c0,0,0.3-1-0.4-1.6c-0.7-0.5-0.7-0.6-0.7-0.6
		s0.2-0.2,0.8-0.3c0.5,0-1.3,0-2.3,0.2c0,0-1.1-0.6-1.3-1.8c0.5-0.2,0.8-0.3,1-0.5h0c0.4-0.2,0.6-0.4,0.6-0.4l-0.3,0.1
		c0.1-0.2,0.2-0.4,0.3-0.6c0.3-1.1,2.5-1.6,2.5-1c0,0.4-0.1,0.8,0.3,1.4c0,0-0.3-1.4,0.2-1.5c0.6-0.1,2,0.3,1.9,1.5
		c-0.1,1.2-0.2,1.6-0.4,1.9c0,0,0.4-0.3,0.6-0.7l0.6,0.7l-1.2,1.1l1.3-0.8c0,0,5.4,4.7,6.2,5.9c0.8,1.3,1.2,2.3,0.7,3.6l-0.1,0.3
		c0,0,1.3-0.3,1.8-1.2c0.1,0.1,0.1,0.8-0.5,1.3c0,0,0.3,0,0.4-0.1c0,0-0.3,0.9-1.8,0.9h-6.5c0-0.3,0.2-1,1.4-0.9
		c0,0-1.5-1.8,0.8-2.7c0,0-0.9,0.1-1.4,0.9c0,0-0.1-0.2-0.3-0.3c-0.4,1.1-0.5,2.1-0.8,3h-1.9c0.1-0.4,0.3-0.8,0.8-0.9
		c0-0.6-0.1-3.5-0.8-4.2c0.5,0.7,0.6,3.1,0.6,4c0,0,0,0.1,0,0.1c-0.4,0.1-0.8,0.6-0.9,1.1h-0.8C19.6,27.5,19.8,26.6,20.7,26.5
		L20.7,26.5z"/>
	<path class="st0" d="M13.5,17.6c-0.3,0-0.4,0-0.5,0c-0.3,0-0.5,0-0.5,0l0.3-0.1c-0.1,0-0.1-0.1-0.2-0.2c-0.2-0.1-0.5-0.3-0.9-0.2
		c-0.3,0.1-0.5,0.1-0.6,0.1c-0.3,0.1-0.7-0.3-0.8-0.4c-0.1-0.3-0.3,0.3-0.2,0.7c0.2,0.8,0.2,1.4,0.1,1.9c0.2,0.1,0.5,0.4,1.1,0.6
		c-0.4,0-0.8-0.2-1.2-0.4l0,0c-0.1,0.3-0.3,0.6-0.5,0.8c-2,2.1-5.2,2.2-4.3,6.6H4.4c-0.5,0-1-0.2-1.3-0.6c-0.3-0.3-0.6-0.8-0.6-1.3
		l0,0c0-0.5,0.2-1,0.6-1.3c0.3-0.3,0.8-0.6,1.3-0.6c0.1,0,0.2-0.1,0.2-0.2c0-0.1-0.1-0.2-0.2-0.2c-0.7,0-1.3,0.3-1.7,0.7
		c-0.4,0.4-0.7,1-0.7,1.7l0,0c0,0.7,0.3,1.3,0.7,1.7c0.4,0.4,1,0.7,1.7,0.7h1h0.5h4.5c0.5,0,0.7,0,0.7,0s0-0.5-0.4-0.6
		c-0.4,0-1.5-0.1-1.5-0.1c-0.4,0-0.5,0-0.5,0c0.4-0.1,0.8-0.2,1-0.3c0.4-0.3,0.9-0.7,1.1-1.1c0-0.4,0.1-0.8,0.2-1.3
		c-0.1,0.4-0.1,0.7-0.1,1c0,0,0.4,2.2,0.6,2.4h1.7c0-0.2-0.1-0.5-0.4-0.7c-0.1,0-0.3-0.1-0.4-0.1c-0.4-0.1-0.3-2.2,0.3-3.9
		c0.4-1.3,0.4-1.7,0.2-2.8C13,20.1,13,20.1,13,20.3c0.1-0.4,0.3-0.8,0.4-1.1c0.1-0.2,0.2-0.3,0.2-0.5C13.9,18.3,13.6,17.7,13.5,17.6
		L13.5,17.6z"/>
	<path class="st0" d="M18.5,27.1c0.1-0.2,0.2-0.5,0.2-0.9c0.5-0.5,0.8-0.8,0.9-1.1c-0.1-0.5,0-0.8,0.2-0.8c0.2-0.1,0.4-0.2,0.4-0.6
		c-0.3-0.6-0.6-0.9-1.1-1l0,0.2c0,0,0-0.1,0-0.3c-0.2-0.8-0.7-1.4-1.3-1.8c-0.1,0.7,0.1,1.3,0.6,1.9c-0.1,0.1-0.1,0.1-0.1,0.1
		c-0.5-0.3-1.2-0.4-2.2-0.1c0.5,0.4,1.1,0.6,1.8,0.7c0,0.4-0.2,0.6-0.6,0.5c-1.4-0.3-2.3,0.1-2.8,1.4c-0.1,0.4-0.1,0.8,0,1.2
		l0.4,0.2c0,0-0.1,0-0.3-0.1c-1-0.3-0.8,0.8,0.1,0.8c1.4,0,3,0,3.3,0c0-0.3-0.2-0.4-0.5-0.4c-0.8,0-1.2,0-1.2,0
		c0.7-0.1,1.2-0.2,1.4-0.4c-0.1-0.2-0.1-0.4-0.1-0.6c0,0.2,0.1,0.4,0.1,0.6c0.2,0.5,0.3,0.8,0.3,0.8c0.5,0,0.8,0,0.8,0
		C18.9,27.1,18.7,27.1,18.5,27.1L18.5,27.1z"/>
	<path class="st1" d="M6.5,20.5c-0.8-0.8-1.5-1.7-2.1-2.6c-0.8-1.2-1.5-2.5-1.8-3.9c-0.4-1.7-0.2-3.4,0.8-4.8
		c1.5-2.2,4.3-3.3,6.9-3.1c1.5,0.1,2.9,0.6,4,1.5c1.3,0.9,2.3,2.2,3,3.7c1.6-1.6,3.6-2.7,5.9-2.5c1.9,0.2,3.5,1.2,4.5,2.9
		c0.6,1.1,0.8,2.3,0.6,3.5c-0.1,0.8-0.4,1.5-0.8,2.2c0.3-0.4,0.6-0.8,0.9-1.2c0.6-1,0.7-2.1,0.6-3.3c-0.3-2.1-1.8-4-3.8-4.8
		c-2.5-1.1-5.1-0.4-7.2,1.2l-0.3,0.2l-0.2-0.3c-1.5-2.4-4-4-6.7-4.5c-2.5-0.4-5.2,0-7.2,1.6C2.3,7.2,1.5,8.4,1,9.8
		c-0.3,1.1-0.4,2.1-0.2,3.2c0.3,1.8,1.3,3.4,2.5,4.7C4.2,18.7,5.3,19.7,6.5,20.5L6.5,20.5z"/>
</g>
</svg>
